Jump_normalized_Motion_pl05
version=1
nRows=20
nColumns=43
inDegrees=yes
endheader
time		pelvis_tilt		pelvis_list		pelvis_rotation		pelvis_tx		pelvis_ty		pelvis_tz		hip_flexion_r		hip_adduction_r		hip_rotation_r		knee_angle_r		ankle_angle_r		subtalar_angle_r		mtp_angle_r		hip_flexion_l		hip_adduction_l		hip_rotation_l		knee_angle_l		ankle_angle_l		subtalar_angle_l		mtp_angle_l		lumbar_extension		lumbar_bending		lumbar_rotation		neck_flexion		neck_lateral_bending		neck_rotation		arm_flex_r		arm_add_r		arm_rot_r		elbow_flex_r		pro_sup_r		wrist_flex_r		wrist_dev_r		hand_finger_flex_r		arm_flex_l		arm_add_l		arm_rot_l		elbow_flex_l		pro_sup_l		wrist_flex_l		wrist_dev_l		hand_finger_flex_l		
2.727500		-1.733173		-15.688212		86.409809		0.011687		1.588970		1.683857		99.465587		-8.016816		16.075509		-142.450073		20.677519		14.758073		22.444018		95.307919		-9.407407		15.447898		-145.212202		18.449050		21.817811		39.656341		-51.782676		-3.334802		-0.796757		38.254481		5.395187		-0.527900		66.437957		-23.112880		16.879893		64.469506		88.860586		-4.730701		-2.892867		-8.381838		75.202477		-20.027750		18.736030		56.441641		91.828802		-12.545884		-2.953621		13.262298		
2.730354		-1.746846		-15.900200		86.364403		0.011458		1.588593		1.682886		99.559476		-8.046418		16.066297		-142.469288		20.734030		14.732295		22.437521		95.398575		-9.403804		15.420686		-145.279333		18.474590		21.800598		39.657284		-51.531783		-3.376088		-0.789570		38.391415		5.390138		-0.533423		67.668668		-22.651729		17.185236		64.294915		88.747444		-4.696132		-2.788708		-8.537395		76.315188		-19.630239		19.067273		56.222934		91.979828		-12.508468		-2.808848		13.151185		
2.733207		-1.765372		-15.932094		86.314701		0.011233		1.588519		1.681844		99.461076		-8.067958		16.087205		-142.485629		20.753369		14.610452		22.413273		95.267379		-9.431840		15.353487		-145.346316		18.487691		21.711201		39.656644		-51.460763		-3.443045		-0.813474		38.360083		5.449221		-0.506604		69.041068		-22.288611		17.847022		63.984099		88.115409		-4.754141		-2.906725		-9.084226		77.521666		-19.280669		19.606007		55.922633		91.876222		-12.587784		-2.738444		12.769310		
2.736061		-1.799110		-15.766091		86.258657		0.010982		1.588811		1.680709		99.133800		-8.089096		16.132099		-142.495459		20.739598		14.395035		22.363426		94.873907		-9.487326		15.240399		-145.410651		18.504206		21.542113		39.654147		-51.597351		-3.529471		-0.875171		38.175105		5.573145		-0.436648		70.580685		-22.056693		18.928043		63.534778		86.836251		-4.937399		-3.314085		-10.174929		78.826750		-19.008519		20.394916		55.559652		91.397573		-12.806786		-2.779600		12.024574		
2.738914		-1.804238		-16.045936		86.243421		0.010717		1.588514		1.679607		99.253379		-8.128574		16.118018		-142.483999		20.806393		14.413878		22.357768		95.002431		-9.476039		15.218211		-145.452696		18.591464		21.552047		39.653734		-51.300838		-3.547249		-0.869575		38.365533		5.561414		-0.446625		71.729052		-21.585393		19.112933		63.451378		86.848627		-4.926530		-3.199394		-10.287455		79.827332		-18.558064		20.566322		55.465008		91.376120		-12.770231		-2.640589		11.930426		
2.741768		-1.802555		-16.276928		86.226340		0.010465		1.588220		1.678463		99.330341		-8.166504		16.115853		-142.491482		20.851875		14.408822		22.351394		95.082171		-9.491882		15.199454		-145.513058		18.664519		21.544225		39.652351		-51.029003		-3.566931		-0.870270		38.507235		5.564815		-0.452680		72.900239		-21.088950		19.342176		63.308029		86.797437		-4.929625		-3.080120		-10.423570		80.852878		-18.121702		20.784050		55.321112		91.313087		-12.738729		-2.477798		11.795754		
2.744621		-1.795762		-16.468414		86.201673		0.010243		1.587999		1.677287		99.362572		-8.197418		16.115685		-142.506436		20.880420		14.384168		22.344309		95.102588		-9.525126		15.182317		-145.565690		18.722111		21.521983		39.649900		-50.790694		-3.591088		-0.872356		38.603182		5.580753		-0.447923		74.094316		-20.567608		19.597345		63.126339		86.677388		-4.951243		-2.967731		-10.589920		81.900075		-17.717469		21.048413		55.157610		91.207916		-12.709123		-2.311859		11.614636		
2.747475		-1.788993		-16.119320		86.159859		0.010067		1.588687		1.675939		98.787802		-8.229143		16.134400		-142.527108		20.901690		14.167551		22.251041		94.457249		-9.630739		15.106422		-145.624201		18.826815		21.390609		39.605583		-51.147487		-3.608320		-1.028793		38.541418		5.591840		-0.202615		75.843033		-20.219665		21.008387		62.540854		85.214206		-5.213916		-3.461496		-12.399908		83.341917		-18.032152		22.554515		55.043746		89.422936		-12.769029		-2.403974		9.587008		
2.750328		-1.781129		-16.401967		86.145271		0.009869		1.588545		1.674697		98.840604		-8.222339		16.119355		-142.498775		20.933965		14.192489		22.245173		94.538008		-9.645079		15.088265		-145.644413		18.852743		21.387560		39.602283		-50.845731		-3.628538		-1.022035		38.614556		5.589638		-0.211358		76.901893		-19.645898		21.013148		62.489194		85.178630		-5.226703		-3.335907		-12.491560		84.316127		-17.600432		22.645728		54.972732		89.468294		-12.732882		-2.294061		9.482616		
2.753182		-1.773586		-16.573840		86.095707		0.009745		1.588425		1.673419		98.821278		-8.192928		16.125485		-142.519864		20.935233		14.177716		22.234067		94.500872		-9.722525		15.076533		-145.687030		18.832965		21.336816		39.595449		-50.623878		-3.678654		-1.018381		38.665978		5.620182		-0.188358		78.062577		-19.098759		21.204661		62.338770		85.108336		-5.239466		-3.161479		-12.683633		85.388533		-17.266989		22.941685		54.813135		89.642687		-12.640052		-2.162337		9.280488		
2.756035		-1.773287		-16.642737		86.022390		0.009705		1.588554		1.672076		98.670224		-8.125658		16.139048		-142.528479		20.905579		14.121442		22.214327		94.312464		-9.832435		15.030760		-145.712753		18.780042		21.240635		39.583478		-50.526875		-3.763515		-1.023962		38.630841		5.686278		-0.126054		79.274795		-18.606444		21.520653		62.195170		84.933114		-5.291048		-3.038320		-13.031701		86.514219		-17.011390		23.338315		54.678712		89.842637		-12.521827		-2.077906		8.926105		
2.758889		-1.771985		-16.874367		85.995857		0.009480		1.588520		1.670710		98.684399		-8.141797		16.144999		-142.519680		20.948423		14.122880		22.206873		94.292558		-9.863920		14.959377		-145.735572		18.835922		21.199162		39.579237		-50.260257		-3.795089		-1.009925		38.831659		5.704388		-0.106595		80.385425		-18.139511		21.721651		62.108373		84.894039		-5.356549		-2.969583		-13.195961		87.521681		-16.606076		23.509203		54.556740		89.967248		-12.477417		-2.002683		8.759487		
2.761742		-1.832917		-16.817048		85.937110		0.009278		1.589150		1.669250		98.364868		-8.117502		16.261942		-142.500785		20.937310		14.108315		22.165977		93.875710		-9.925071		14.730517		-145.704489		18.863397		20.939915		39.553023		-50.341579		-3.911973		-1.046600		38.946398		5.818095		-0.060256		81.689923		-17.866458		22.406948		62.006810		84.371192		-5.848575		-3.087054		-13.971894		88.726428		-16.239917		23.898646		54.313600		90.069047		-12.390710		-2.052325		7.974673		
2.764596		-1.854436		-17.018994		85.919936		0.009068		1.589492		1.667783		98.268257		-8.105480		16.293105		-142.442077		20.970072		14.133161		22.146829		93.752310		-9.902143		14.587153		-145.655858		18.920308		20.846049		39.540558		-50.149600		-3.962297		-1.050849		39.027034		5.869076		-0.052820		82.797490		-17.532942		22.727414		62.028173		84.195235		-6.045701		-3.123076		-14.308199		89.736943		-15.854348		24.065016		54.258669		90.127995		-12.331847		-2.058626		7.614046		
2.767449		-1.841177		-17.326464		85.928929		0.008843		1.589524		1.666326		98.330736		-8.121428		16.308961		-142.421653		21.004286		14.181227		22.141284		93.780794		-9.880178		14.509294		-145.636019		18.985003		20.817181		39.536190		-49.800220		-3.963101		-1.030338		39.176301		5.905155		-0.057493		83.868769		-17.145675		22.939209		61.985462		84.272186		-6.078739		-3.052736		-14.393022		90.697961		-15.458340		24.219902		54.165136		90.247263		-12.290326		-1.988783		7.487996		
2.770303		-1.831564		-17.588376		85.940943		0.008578		1.589673		1.664772		98.328619		-8.146832		16.343263		-142.402097		21.007376		14.237833		22.134827		93.741771		-9.857409		14.413807		-145.606025		19.036052		20.752734		39.530109		-49.497439		-3.971616		-1.022050		39.283680		5.966602		-0.055377		84.930275		-16.771599		23.175501		61.935342		84.315194		-6.169159		-3.024759		-14.514401		91.653694		-15.063940		24.396389		54.072175		90.361181		-12.279096		-1.955611		7.307045		
2.773157		-1.855640		-17.730247		85.969998		0.008282		1.590083		1.663152		98.181618		-8.191158		16.439369		-142.364448		20.968919		14.333754		22.121429		93.553344		-9.802530		14.253647		-145.575869		19.070083		20.593738		39.514528		-49.335179		-4.000066		-1.078608		39.332285		6.069327		-0.033360		86.067168		-16.420215		23.549085		61.818494		84.210481		-6.399683		-3.111564		-14.787918		92.681183		-14.717538		24.685822		53.939106		90.443712		-12.306116		-2.018259		6.887407		
2.776010		-1.925967		-17.714900		86.012793		0.007909		1.590785		1.661394		97.867664		-8.283795		16.627913		-142.340994		20.903148		14.479737		22.096438		93.150430		-9.725791		14.003020		-145.525885		19.085130		20.315030		39.483513		-49.343863		-4.045490		-1.209453		39.329419		6.208542		0.016624		87.285870		-16.087709		24.105999		61.616536		83.866174		-6.808543		-3.352181		-15.282402		93.774093		-14.439982		25.119536		53.758025		90.443116		-12.358294		-2.200887		6.117492		
2.778864		-1.932249		-18.015575		86.035897		0.007721		1.591072		1.659690		97.858687		-8.315651		16.645082		-142.289442		20.967359		14.523533		22.091397		93.125750		-9.713631		13.903959		-145.464456		19.151169		20.305242		39.475781		-48.999254		-4.049155		-1.225775		39.467811		6.218099		0.011439		88.278844		-15.590004		24.148313		61.503311		83.762178		-6.844743		-3.323612		-15.378376		94.633253		-14.064775		25.148312		53.727093		90.418799		-12.344383		-2.183279		5.946430		
2.781717		-1.984583		-18.022084		86.081767		0.007417		1.591724		1.657880		97.555029		-8.367163		16.822252		-142.270490		20.928053		14.659974		22.070615		92.760429		-9.657485		13.717782		-145.427039		19.162417		20.168638		39.440662		-48.977062		-4.046727		-1.435524		39.464264		6.248006		0.102914		89.532651		-15.032613		24.564028		61.123249		83.287246		-6.856243		-3.521595		-15.810103		95.666150		-14.043330		25.570166		53.720126		90.463125		-12.273489		-2.342471		5.236654		
